<svg version="1.1" viewBox="0.0 0.0 495.3070866141732 105.35433070866142" fill="none" stroke="none" stroke-linecap="square" stroke-miterlimit="10" xmlns:xlink="http://www.w3.org/1999/xlink" xmlns="http://www.w3.org/2000/svg"><clipPath id="p.0"><path d="m0 0l495.3071 0l0 105.35433l-495.3071 0l0 -105.35433z" clip-rule="nonzero"/></clipPath><g clip-path="url(#p.0)"><path fill="#000000" fill-opacity="0.0" d="m0 0l495.3071 0l0 105.35433l-495.3071 0z" fill-rule="evenodd"/><path fill="#000000" fill-opacity="0.0" d="m-38.31496 -31.902887l565.92126 0l0 145.92126l-565.92126 0z" fill-rule="evenodd"/><path fill="#339fd3" d="m30.088177 102.41337q-7.375 0 -14.6875 -0.453125q-7.296875 -0.4375 -15.1875 -2.125l0 -86.90625q6.203125 -1.171875 13.578125 -1.75q7.375 -0.578125 13.71875 -0.578125q8.53125 0 15.703125 1.234375q7.1875 1.21875 12.359375 4.203125q5.171875 2.96875 8.078125 7.828125q2.9062462 4.84375 2.9062462 11.953127q0 10.734375 -10.343746 16.9375q8.531246 3.234375 11.640621 8.796875q3.109375 5.5625 3.109375 12.546875q0 14.09375 -10.281246 21.203125q-10.28125 7.109375 -30.59375 7.109375zm-10.21875 -40.21875l0 23.15625q2.203125 0.25 4.78125 0.390625q2.59375 0.125 5.703125 0.125q9.046875 0 14.609375 -2.578125q5.5625 -2.59375 5.5625 -9.578125q0 -6.203125 -4.65625 -8.859375q-4.65625 -2.65625 -13.328125 -2.65625l-12.671875 0zm0 -15.390625l9.828125 0q9.3125 0 13.3125 -2.390625q4.015625 -2.390625 4.015625 -7.6875q0 -5.437502 -4.140625 -7.625002q-4.125 -2.203125 -12.140625 -2.203125q-2.59375 0 -5.578125 0.0625q-2.96875 0.0625 -5.296875 0.328125l0 19.515627zm129.59593 20.3125q0 8.015625 -2.328125 14.6875q-2.328125 6.65625 -6.734375 11.375q-4.390625 4.71875 -10.53125 7.3125q-6.1406326 2.578125 -13.781258 2.578125q-7.5 0 -13.640625 -2.578125q-6.140625 -2.59375 -10.546875 -7.3125q-4.390625 -4.71875 -6.859375 -11.375q-2.453125 -6.671875 -2.453125 -14.6875q0 -8.015625 2.515625 -14.609375q2.53125 -6.609375 6.984375 -11.25q4.46875 -4.65625 10.609375 -7.25q6.15625 -2.593752 13.390625 -2.593752q7.375 0 13.515633 2.593752q6.140625 2.59375 10.53125 7.25q4.40625 4.640625 6.859375 11.25q2.46875 6.59375 2.46875 14.609375zm-19.65625 0q0 -8.921875 -3.5625076 -14.03125q-3.5625 -5.109375 -10.15625 -5.109375q-6.59375 0 -10.21875 5.109375q-3.609375 5.109375 -3.609375 14.03125q0 8.921875 3.609375 14.15625q3.625 5.234375 10.21875 5.234375q6.59375 0 10.15625 -5.234375q3.5625076 -5.234375 3.5625076 -14.15625zm33.877106 -50.828125l19.265625 -3.109375l0 20.046877l23.15625 0l0 16.046875l-23.15625 0l0 23.921875q0 6.078125 2.125 9.703125q2.140625 3.609375 8.609375 3.609375q3.109375 0 6.40625 -0.578125q3.296875 -0.578125 6.015625 -1.609375l2.71875 15.0q-3.5 1.421875 -7.765625 2.453125q-4.265625 1.03125 -10.46875 1.03125q-7.890625 0 -13.0625 -2.125q-5.171875 -2.140625 -8.28125 -5.953125q-3.109375 -3.8125 -4.34375 -9.234375q-1.21875 -5.4375 -1.21875 -12.046875l0 -57.15625zm77.59349 71.125q5.3125 0 7.5 -1.03125q2.203125 -1.03125 2.203125 -4.0q0 -2.328125 -2.84375 -4.078125q-2.84375 -1.75 -8.671875 -3.953125q-4.515625 -1.671875 -8.203125 -3.484375q-3.6875 -1.8125 -6.28125 -4.328125q-2.578125 -2.53125 -4.0 -6.015625q-1.421875 -3.5 -1.421875 -8.40625q0 -9.578125 7.109375 -15.140625q7.109375 -5.562502 19.53125 -5.562502q6.203125 0 11.89061 1.1093769q5.6875 1.09375 9.0625 2.390625l-3.375 15.0q-3.359375 -1.15625 -7.3125 -2.0625q-3.9374847 -0.90625 -8.843735 -0.90625q-9.0625 0 -9.0625 5.03125q0 1.171875 0.390625 2.078125q0.390625 0.90625 1.546875 1.75q1.171875 0.828125 3.171875 1.8125q2.015625 0.96875 5.109375 2.125q6.34375 2.328125 10.48436 4.59375q4.140625 2.265625 6.53125 4.921875q2.390625 2.640625 3.359375 5.875q0.96875 3.234375 0.96875 7.5q0 10.09375 -7.5625 15.265625q-7.5624847 5.171875 -21.406235 5.171875q-9.046875 0 -15.0625 -1.5625q-6.015625 -1.546875 -8.34375 -2.578125l3.234375 -15.65625q4.90625 1.953125 10.078125 3.046875q5.171875 1.09375 10.21875 1.09375zm104.36473 -3.484375l0 17.328125l-59.875 0l0 -89.625l20.171875 0l0 72.296875l39.703125 0zm39.191803 3.875q2.84375 0 5.421875 -0.125q2.59375 -0.125 4.15625 -0.390625l0 -14.609375q-1.171875 -0.265625 -3.5 -0.515625q-2.328125 -0.265625 -4.265625 -0.265625q-2.71875 0 -5.109375 0.328125q-2.390625 0.328125 -4.203125 1.234375q-1.8125 0.890625 -2.84375 2.453125q-1.03125 1.546875 -1.03125 3.875q0 4.53125 3.03125 6.28125q3.046875 1.734375 8.34375 1.734375zm-1.546875 -56.390625q8.53125 0 14.21875 1.9531269q5.6875 1.9375 9.109375 5.5625q3.4375 3.609375 4.859375 8.78125q1.421875 5.171875 1.421875 11.515625l0 40.09375q-4.140625 0.90625 -11.515625 2.125q-7.359375 1.234375 -17.84375 1.234375q-6.59375 0 -11.96875 -1.171875q-5.359375 -1.15625 -9.234375 -3.796875q-3.875 -2.65625 -5.953125 -6.921875q-2.0625 -4.28125 -2.0625 -10.484375q0 -5.953125 2.390625 -10.078125q2.390625 -4.140625 6.390625 -6.59375q4.015625 -2.46875 9.1875 -3.5625q5.171875 -1.109375 10.734375 -1.109375q3.75 0 6.65625 0.328125q2.921875 0.328125 4.734375 0.84375l0 -1.8125q0 -4.90625 -2.984375 -7.875q-2.96875 -2.984375 -10.34375 -2.984375q-4.90625 0 -9.703125 0.71875q-4.78125 0.703125 -8.265625 2.0l-2.46875 -15.53125q1.6875 -0.515625 4.203125 -1.09375q2.53125 -0.578125 5.5 -1.03125q2.96875 -0.453125 6.265625 -0.7812519q3.3125 -0.328125 6.671875 -0.328125zm90.65903 35.3125q0 -18.625 -13.71875 -18.625q-2.96875 0 -5.875 0.78125q-2.90625 0.765625 -4.71875 1.9375l0 35.046875q1.421875 0.265625 3.609375 0.453125q2.203125 0.1875 4.796875 0.1875q7.890625 0 11.890625 -5.421875q4.015625 -5.4375 4.015625 -14.359375zm19.65625 0.515625q0 8.15625 -2.390625 14.75q-2.390625 6.59375 -6.921875 11.25q-4.53125 4.65625 -11.125 7.1875q-6.59375 2.515625 -15.0 2.515625q-3.5 0 -7.3125 -0.328125q-3.8125 -0.328125 -7.5 -0.84375q-3.6875 -0.515625 -7.046875 -1.21875q-3.359375 -0.71875 -5.953125 -1.5l0 -95.046875l19.28125 -3.1093748l0 33.890625q3.234375 -1.421875 6.71875 -2.203125q3.5 -0.7812519 7.5 -0.7812519q7.25 0 12.796875 2.531252q5.5625 2.515625 9.3125 7.171875q3.765625 4.65625 5.703125 11.1875q1.9375 6.53125 1.9375 14.546875z" fill-rule="nonzero"/></g></svg>
